name kv08_filtered_grf.mot
datacolumns 37
datarows 14
range 0.002500 0.009000
endheader
time	1_ground_force_vx	1_ground_force_vy	1_ground_force_vz	1_ground_force_px	1_ground_force_py	1_ground_force_pz	1_ground_torque_x	1_ground_torque_y	1_ground_torque_z	2_ground_force_vx	2_ground_force_vy	2_ground_force_vz	2_ground_force_px	2_ground_force_py	2_ground_force_pz	2_ground_torque_x	2_ground_torque_y	2_ground_torque_z	3_ground_force_vx	3_ground_force_vy	3_ground_force_vz	3_ground_force_px	3_ground_force_py	3_ground_force_pz	3_ground_torque_x	3_ground_torque_y	3_ground_torque_z	4_ground_force_vx	4_ground_force_vy	4_ground_force_vz	4_ground_force_px	4_ground_force_py	4_ground_force_pz	4_ground_torque_x	4_ground_torque_y	4_ground_torque_z
            0.002500	            0.000015	           -0.000025	           -0.000102	            0.045329	            0.000000	            1.822238	            0.000026	           -0.000094	            0.000012	           -0.000000	            0.000000	            0.000000	           -0.183930	            0.000000	            0.159135	            0.000000	           -0.000000	            0.000000	           -0.222293	            0.969613	            1.001591	            0.386601	            0.970560	            1.071760	            0.080058	            0.053808	            0.091282	           -0.580551	            0.218877	           -0.185020	           -0.368969	            0.969606	            1.107799	           -0.020303	            0.028707	           -0.013962
            0.003000	            0.000018	           -0.000032	           -0.000125	            0.045329	            0.000000	            1.822238	            0.000032	           -0.000102	            0.000013	           -0.000000	            0.000000	            0.000000	           -0.183930	            0.000000	            0.159135	            0.000000	           -0.000000	            0.000000	           -0.159068	            0.886788	            0.906531	            0.386601	            0.970560	            1.071760	            0.075506	            0.052464	            0.086970	           -0.531784	            0.255750	           -0.186612	           -0.368969	            0.969606	            1.107799	           -0.019702	            0.025279	           -0.009404
            0.003500	            0.000022	           -0.000039	           -0.000148	            0.045329	            0.000000	            1.822238	            0.000039	           -0.000109	            0.000015	           -0.000000	            0.000000	            0.000000	           -0.183930	            0.000000	            0.159135	            0.000000	           -0.000000	            0.000000	           -0.095179	            0.805440	            0.812638	            0.386605	            0.970562	            1.071762	            0.071004	            0.051092	            0.082657	           -0.484045	            0.295478	           -0.185691	           -0.368966	            0.969607	            1.107798	           -0.019108	            0.021703	           -0.004600
            0.004000	            0.000026	           -0.000046	           -0.000171	            0.045329	            0.000000	            1.822238	            0.000047	           -0.000116	            0.000016	            0.000000	            0.000000	           -0.000000	           -0.183930	            0.000000	            0.159135	            0.000000	           -0.000000	            0.000000	           -0.030773	            0.725771	            0.720081	            0.386608	            0.970564	            1.071765	            0.066560	            0.049689	            0.078349	           -0.437450	            0.337996	           -0.182178	           -0.368963	            0.969608	            1.107797	           -0.018520	            0.017977	            0.000442
            0.004500	            0.000029	           -0.000054	           -0.000195	            0.045329	            0.000000	            1.822238	            0.000054	           -0.000122	            0.000018	            0.000000	            0.000000	           -0.000000	           -0.183930	            0.000000	            0.159135	            0.000000	            0.000000	            0.000000	            0.034001	            0.647982	            0.629020	            0.386611	            0.970566	            1.071767	            0.062185	            0.048257	            0.074048	           -0.392110	            0.383219	           -0.176002	           -0.368960	            0.969609	            1.107796	           -0.017940	            0.014102	            0.005710
            0.005000	            0.000033	           -0.000061	           -0.000220	            0.045329	            0.000000	            1.822238	            0.000062	           -0.000129	            0.000020	            0.000000	           -0.000000	           -0.000000	           -0.183930	            0.000000	            0.159135	           -0.000000	            0.000000	           -0.000000	            0.098998	            0.572267	            0.539609	            0.386615	            0.970569	            1.071769	            0.057886	            0.046794	            0.069761	           -0.348126	            0.431044	           -0.167102	           -0.368957	            0.969610	            1.107795	           -0.017367	            0.010078	            0.011194
            0.005500	            0.000036	           -0.000069	           -0.000245	            0.045329	            0.000000	            1.822238	            0.000069	           -0.000135	            0.000022	            0.000000	           -0.000000	           -0.000000	           -0.183930	            0.000000	            0.159135	           -0.000000	            0.000000	           -0.000000	            0.164068	            0.498812	            0.451994	            0.386619	            0.970571	            1.071772	            0.053672	            0.045300	            0.065491	           -0.305593	            0.481347	           -0.155430	           -0.368954	            0.969611	            1.107794	           -0.016801	            0.005908	            0.016879
            0.006000	            0.000040	           -0.000076	           -0.000269	            0.045329	            0.000000	            1.822238	            0.000077	           -0.000141	            0.000023	            0.000000	           -0.000000	           -0.000000	           -0.183930	            0.000000	            0.159135	           -0.000000	            0.000000	           -0.000000	            0.229070	            0.427800	            0.366312	            0.386622	            0.970573	            1.071774	            0.049551	            0.043776	            0.061242	           -0.264598	            0.533983	           -0.140946	           -0.368951	            0.969612	            1.107793	           -0.016242	            0.001591	            0.022750
            0.006500	            0.000044	           -0.000084	           -0.000294	            0.045329	            0.000000	            1.822238	            0.000085	           -0.000146	            0.000025	            0.000000	           -0.000000	           -0.000000	           -0.183930	            0.000000	            0.159135	           -0.000000	            0.000000	           -0.000000	            0.293864	            0.359404	            0.282689	            0.386626	            0.970576	            1.071776	            0.045531	            0.042220	            0.057016	           -0.225215	            0.588785	           -0.123622	           -0.368948	            0.969612	            1.107792	           -0.015691	           -0.002868	            0.028791
            0.007000	            0.000048	           -0.000092	           -0.000319	            0.045329	            0.000000	            1.822238	            0.000093	           -0.000151	            0.000026	            0.000000	           -0.000000	           -0.000000	           -0.183930	            0.000000	            0.159135	           -0.000000	            0.000000	           -0.000000	            0.358312	            0.293786	            0.201243	            0.386629	            0.970578	            1.071779	            0.041620	            0.040633	            0.052818	           -0.187513	            0.645565	           -0.103442	           -0.368946	            0.969613	            1.107791	           -0.015147	           -0.007468	            0.034983
            0.007500	            0.000051	           -0.000099	           -0.000343	            0.045329	            0.000000	            1.822238	            0.000101	           -0.000156	            0.000028	            0.000000	           -0.000000	           -0.000000	           -0.183930	            0.000000	            0.159135	           -0.000000	            0.000000	           -0.000000	            0.422280	            0.231103	            0.122081	            0.386633	            0.970580	            1.071781	            0.037823	            0.039014	            0.048650	           -0.151547	            0.704114	           -0.080405	           -0.368943	            0.969614	            1.107789	           -0.014610	           -0.012205	            0.041305
            0.008000	            0.000055	           -0.000107	           -0.000367	            0.045329	            0.000000	            1.822238	            0.000108	           -0.000160	            0.000029	            0.000000	           -0.000000	           -0.000000	           -0.183930	            0.000000	            0.159135	           -0.000000	            0.000000	           -0.000000	            0.485640	            0.171498	            0.045304	            0.386636	            0.970583	            1.071784	            0.034146	            0.037363	            0.044515	           -0.117361	            0.764200	           -0.054520	           -0.368940	            0.969615	            1.107788	           -0.014080	           -0.017074	            0.047736
            0.008500	            0.000058	           -0.000114	           -0.000391	            0.045329	            0.000000	            1.822238	            0.000116	           -0.000163	            0.000031	            0.000000	           -0.000000	           -0.000000	           -0.183930	            0.000000	            0.159135	           -0.000000	            0.000000	           -0.000000	            0.548269	            0.115107	           -0.029005	            0.386640	            0.970585	            1.071787	            0.030597	            0.035680	            0.040414	           -0.084991	            0.825572	           -0.025811	           -0.368937	            0.969616	            1.107787	           -0.013559	           -0.022071	            0.054252
            0.009000	            0.000062	           -0.000122	           -0.000414	            0.045329	            0.000000	            1.822238	            0.000123	           -0.000166	            0.000032	            0.000000	           -0.000000	           -0.000000	           -0.183930	            0.000000	            0.159135	           -0.000000	            0.000000	           -0.000000	            0.610049	            0.062052	           -0.100771	            0.386644	            0.970588	            1.071790	            0.027181	            0.033966	            0.036350	           -0.054459	            0.887954	            0.005685	           -0.368934	            0.969616	            1.107786	           -0.013044	           -0.027191	            0.060827
